<svg width="24" height="24" viewBox="0 0 24 24" fill="none" xmlns="http://www.w3.org/2000/svg">
<rect width="24" height="24" rx="5" fill="#005475"/>
<path d="M12.0001 14.625C11.3039 14.625 10.6363 14.3484 10.144 13.8562C9.65169 13.3639 9.37512 12.6962 9.37512 12C9.37512 11.3038 9.65169 10.6361 10.144 10.1438C10.6363 9.65156 11.3039 9.375 12.0001 9.375C12.6963 9.375 13.364 9.65156 13.8563 10.1438C14.3486 10.6361 14.6251 11.3038 14.6251 12C14.6251 12.6962 14.3486 13.3639 13.8563 13.8562C13.364 14.3484 12.6963 14.625 12.0001 14.625ZM17.5726 12.7275C17.6026 12.4875 17.6251 12.2475 17.6251 12C17.6251 11.7525 17.6026 11.505 17.5726 11.25L19.1551 10.0275C19.2976 9.915 19.3351 9.7125 19.2451 9.5475L17.7451 6.9525C17.6551 6.7875 17.4526 6.72 17.2876 6.7875L15.4201 7.5375C15.0301 7.245 14.6251 6.99 14.1526 6.8025L13.8751 4.815C13.8451 4.635 13.6876 4.5 13.5001 4.5H10.5001C10.3126 4.5 10.1551 4.635 10.1251 4.815L9.84762 6.8025C9.37512 6.99 8.97012 7.245 8.58012 7.5375L6.71262 6.7875C6.54762 6.72 6.34512 6.7875 6.25512 6.9525L4.75512 9.5475C4.65762 9.7125 4.70262 9.915 4.84512 10.0275L6.42762 11.25C6.39762 11.505 6.37512 11.7525 6.37512 12C6.37512 12.2475 6.39762 12.4875 6.42762 12.7275L4.84512 13.9725C4.70262 14.085 4.65762 14.2875 4.75512 14.4525L6.25512 17.0475C6.34512 17.2125 6.54762 17.2725 6.71262 17.2125L8.58012 16.455C8.97012 16.755 9.37512 17.01 9.84762 17.1975L10.1251 19.185C10.1551 19.365 10.3126 19.5 10.5001 19.5H13.5001C13.6876 19.5 13.8451 19.365 13.8751 19.185L14.1526 17.1975C14.6251 17.0025 15.0301 16.755 15.4201 16.455L17.2876 17.2125C17.4526 17.2725 17.6551 17.2125 17.7451 17.0475L19.2451 14.4525C19.3351 14.2875 19.2976 14.085 19.1551 13.9725L17.5726 12.7275Z" fill="#F0F0F0"/>
</svg>
